<svg viewBox="0 0 400 400" xmlns="http://www.w3.org/2000/svg" height="400" width="400" id="Get-Job-Promotion-4--Streamline-Brooklyn.svg"><desc>Get Job Promotion 4 Streamline Illustration: https://streamlinehq.com</desc><path d="M354.148 193.648a130.508 130.508 0 0 0 -91.294 -16.832c-25.4 4.764 -58.672 21.42 -77.944 33.836 -3.946 -1.74 -19.21 -6.152 -26.638 -8.532a0.8 0.8 0 0 0 -1.044 0.058c-7.6 8.474 -35.4 24.318 -38.48 26.466 -0.87 0.464 -0.116 1.16 0 1.218a120.702 120.702 0 0 1 25.072 14.4c-2.088 2.148 -4.12 4.4 -6.036 6.732a1.73 1.73 0 0 0 -0.29 1.102c1.228 4.442 20.256 46.662 22.52 50.668a1.098 1.098 0 0 0 0.986 1.566c3.422 0.2 6.848 0.174 10.272 0.058 -1.566 3.656 -7.782 20.776 -8.6 25.6a0.69 0.69 0 0 0 0.814 0.754c3.428 -0.374 29.48 -7.254 43.876 -7.37a0.81 0.81 0 0 0 0.754 -0.696c0.812 -1.626 4.468 -14.22 12.768 -24.898a253.844 253.844 0 0 0 33.14 -9.924c27.04 -10.166 54.02 -22.472 73.648 -44.4a121.45 121.45 0 0 0 26.756 -49.158c0.068 -0.126 -0.164 -0.59 -0.28 -0.648Zm-232.846 35.46c2.612 -1.044 30.528 -16.83 36.8 -24.55a225.624 225.624 0 0 0 24.84 7.37c-6.674 2.554 -34.3 27.51 -37.318 30.528 -3.544 -3.482 -18.692 -12.594 -24.322 -13.348Zm84.85 92.046c-12.652 0.174 -38.71 6.734 -41.438 7.72A252.112 252.112 0 0 0 174 304.2a389.034 389.034 0 0 0 44 -5.8c-3.954 3.66 -11.092 18.576 -11.848 22.754Zm49.8 -36.562a371.5 371.5 0 0 1 -36.156 10.91c-15.028 4.08 -47.94 5.92 -58.502 6.5 -1.334 -4.12 -19.094 -46.08 -21.358 -50.086 4.644 -4.584 25.54 -24.256 31.746 -29.018C197.8 202.86 233.63 186.2 255.89 180.588a126.044 126.044 0 0 1 49.332 -2.552c22.054 19.848 19.326 58.036 18.8 66.336 -19.07 20.052 -42.202 30.278 -68.074 40.228Z" fill="#ffc445" stroke-width="1"></path><path d="M224.898 73.626a4.4 4.4 0 0 0 4.644 0c0.058 0.638 0.756 8.766 -4.644 12.536a12.356 12.356 0 0 1 -8.53 1.626c-5.05 -0.462 -6.442 -2.788 -15.554 -7.314 -8.814 -4.376 -12.128 -5.474 -20.14 -0.464a50.97 50.97 0 0 0 -14.8 14.4c-3.772 -1.278 -7.544 -2.612 -11.316 -3.888l0.87 -12.478c8.364 -6.6 24.13 -15.078 34.068 -13.93 1.4 0.162 11.418 1.232 17.236 8.242 1.158 1.4 10.634 9.836 13.93 8.416a8.012 8.012 0 0 0 4.236 -7.146Z" fill="#303e4d" stroke-width="1"></path><path d="M275.158 124.758c-5.34 0.218 -31.4 0.29 -38.304 -0.058 1.044 -3.25 6.484 -37.616 2.728 -51.828a0.622 0.622 0 0 0 -1.218 0.174c1.848 24.882 -3.658 48.346 -4.122 52.06L201.916 141c0.348 -5.108 -1.334 -27.974 -4.4 -35.984a73.634 73.634 0 0 1 9.982 -12.884c0.928 -0.928 -0.746 -2.076 -1.742 -1.334 -6.446 4.802 -28.104 39.644 -29.666 43.536 -0.234 0.58 0.692 1.1 1.044 0.638 2.356 -3.094 17 -25.246 18.456 -27.278 2.612 5.8 4 25.362 4.12 28.844 0.06 1.8 0.116 5.514 0.116 5.514 -1.334 18.978 -14.682 86.65 -18.63 104.874 -1.218 1.8 -2.636 10.2 -1.856 11.956 0.484 1.092 1.954 0.4 2.03 -0.582 0.14 -1.8 0.698 -7.6 0.988 -8.704 1.16 0.174 6.268 0.754 9.518 -2.264a16.746 16.746 0 0 0 10.33 2.03c1.454 -0.21 3.426 -1.104 4.468 0.35a1.032 1.032 0 0 0 1.916 -0.524c0 -2.378 -2.374 -3.164 -4.4 -2.784a21 21 0 0 1 -10.854 -0.176c0.29 -0.29 29.6 -74.46 33.488 -97.502a58.616 58.616 0 0 1 31.572 -2.03c-0.754 5.048 -4.76 26.696 -6.094 32.442 1.974 -0.464 10.504 -2.38 12.652 -2.786C267.73 168 276.38 134.704 277.6 127.6a2.422 2.422 0 0 0 -2.442 -2.842Z" fill="#303e4d" stroke-width="1"></path><path d="M287.694 51.572a11.446 11.446 0 0 1 -1.102 -4.41c-0.152 -1.164 -1.848 -1.624 -2.2 -0.29a7.2 7.2 0 0 0 0.698 5c-6.386 4.702 -37.248 24.024 -40.51 26.466 -0.53 0.4 -0.236 1.444 0.464 1.16 7.342 -2.974 35.344 -21.126 42.2 -26.174a1.384 1.384 0 0 0 0.45 -1.752Z" fill="#303e4d" stroke-width="1"></path><path d="M221.242 30.156c-1.162 0.03 -1.748 2.09 -1.682 2.728a0.556 0.556 0 0 0 1.044 0.116 8.864 8.864 0 0 0 0.87 -2.554c0.058 -0.116 -0.058 -0.294 -0.232 -0.29Z" fill="#303e4d" stroke-width="1"></path><path d="M223.448 33.638c-0.4 -0.754 -1.862 -1.452 -2.2 -0.29a1.528 1.528 0 0 0 0.986 1.916c0.924 0.348 1.62 -0.754 1.214 -1.626Z" fill="#303e4d" stroke-width="1"></path><path d="M229.2 31.434c-0.4 -0.754 -1.916 -1.452 -2.2 -0.29a1.578 1.578 0 0 0 0.986 1.914c0.976 0.342 1.614 -0.754 1.214 -1.624Z" fill="#303e4d" stroke-width="1"></path><path d="M161.464 167.82c-2.2 -1.068 -4.4 -2.058 -6.616 -3.076a1.242 1.242 0 0 0 -1.684 0.466 79.708 79.708 0 0 0 -4.062 9.866 1.118 1.118 0 0 0 2.032 0.87 67.56 67.56 0 0 0 3.714 -8.532c1.508 0.696 3.018 1.336 4.526 2.032a104.62 104.62 0 0 0 -3.946 10.8 26.414 26.414 0 0 0 -4.236 -0.986c-0.638 -0.116 -1.162 0.812 -0.464 1.16a38.456 38.456 0 0 0 5.106 1.974 0.91 0.91 0 0 0 1.162 -0.696 107.734 107.734 0 0 1 4.874 -12.304 1.182 1.182 0 0 0 -0.406 -1.574Z" fill="#303e4d" stroke-width="1"></path><path d="M187.87 80.882c-3.962 4.278 -22.4 50.956 -22.054 52.29 -4.758 1.51 -7.4 8.26 -4.4 12.362a8.686 8.686 0 0 0 11.2 1.916 7.742 7.742 0 0 0 2.842 -4.702c0.184 -0.576 -0.642 -1.106 -1.044 -0.638 -1.822 2.128 -2.67 4.28 -5.862 4.354a6.018 6.018 0 0 1 -5.454 -2.728C161.024 140 164.134 137 167.036 135.2a11.09 11.09 0 0 0 10.62 4.178c0.696 -0.122 0.522 -1.218 -0.174 -1.218a11.486 11.486 0 0 1 -9.518 -5.05c-0.618 -0.942 -0.358 -1.164 0.116 -2.262 2.442 -5.654 19.906 -43.878 21.764 -49.216 0.522 -1.158 -1.164 -1.632 -1.974 -0.75Z" fill="#303e4d" stroke-width="1"></path><path d="M188.4 161.61a133.564 133.564 0 0 0 -13.814 -6.674 60.4 60.4 0 0 0 3.25 -7.486c0.26 -0.776 -0.874 -1.622 -1.566 -2.032a0.64 0.64 0 0 0 -0.93 0.696 3.7 3.7 0 0 0 0.466 1.104 47.868 47.868 0 0 0 -3.484 6.616c-2.842 -1.278 -14.74 -6.5 -17.874 -7.836a59.072 59.072 0 0 0 4.526 -9.228 4.824 4.824 0 0 0 0.754 -0.116 0.662 0.662 0 0 0 0.176 -1.16c-0.818 -0.454 -1.82 -0.9 -2.322 -0.116a51.672 51.672 0 0 0 -5.34 9.692A102.25 102.25 0 0 0 140 140.37a0.588 0.588 0 0 0 -0.58 0.174c-8.764 10.62 -15.05 34.824 -15.322 37.956a0.838 0.838 0 0 0 0.638 0.986c3.772 2.2 43.76 19.906 47.708 21.184 0.29 0.116 0.696 -0.29 0.696 -0.29 3.714 -5.224 15.09 -34.126 15.728 -37.55a2.018 2.018 0 0 0 -0.468 -1.22Zm-9.524 21.706a145.228 145.228 0 0 0 -16.542 -7.716c-0.582 -0.168 -1.112 0.65 -0.638 1.044a121.514 121.514 0 0 0 16.25 8.938c-0.754 1.8 -4.816 10.8 -5.746 13.58 -3.54 -2.264 -42.018 -20.14 -45.558 -21.362 0.928 -2.612 3.83 -13.4 4.816 -16.078a153.81 153.81 0 0 0 17.354 8.126c0.582 0.168 1.102 -0.638 0.638 -1.044a141.09 141.09 0 0 0 -17.12 -9.344c1.334 -3.482 6.906 -15.09 7.834 -17.528 3.54 1.974 42.6 19.964 46.14 21.3 -1.044 2.5 -7.138 19.446 -7.428 20.084Z" fill="#303e4d" stroke-width="1"></path><path d="M153.28 302.4c-1.16 -3.6 -18.384 -40.344 -20.718 -43.876 -0.116 -0.174 -1.16 -0.634 -1.51 -0.4 -1.664 1.092 -9.544 8.6 -9.286 9.8 1.316 6.17 10.76 30.026 13.756 35.346 0.228 0.4 0.928 0.522 0.986 0.58a96.048 96.048 0 0 0 16.424 -0.696s0.468 -0.454 0.348 -0.754Zm-16.018 -0.812a316.48 316.48 0 0 0 -14.044 -33.546 67.538 67.538 0 0 0 8 -6.848c1.22 2.96 18.166 37.318 20.14 40.51 -2.024 -0.224 -11.542 -0.34 -14.096 -0.104Z" fill="#ffc445" stroke-width="1"></path><path d="M211.956 250.118s-0.468 -1.294 -1.4 -1.104c-4.428 0.91 -47.236 16.32 -51.016 18.224 -0.23 0.118 -0.29 0.638 -0.29 0.696a33.51 33.51 0 0 0 6.2 7.952 0.886 0.886 0 0 0 0.988 0.058c3.83 -0.812 41.438 -13.812 44.92 -15.554 0.956 -0.468 0.842 -8.93 0.598 -10.272Zm-45.5 23.446a57.852 57.852 0 0 0 -5.05 -5.456c3.946 -0.986 44.862 -14.8 48.228 -16.2a50.244 50.244 0 0 0 0.582 7.546c-3.716 0.704 -40.452 12.66 -43.76 14.11Z" fill="#ffc445" stroke-width="1"></path><path d="M10.8 293.122c7.37 -3.016 83.8 -39.94 87.346 -42.25 0.984 -0.642 0.4 -2.49 -0.872 -2.032 -3.6 1.292 -79.894 38.942 -87 43.122 -0.58 0.344 -0.17 1.394 0.526 1.16Z" fill="#303e4d" stroke-width="1"></path><path d="M17.01 243.618c7.36 -3.042 83.8 -39.942 87.346 -42.252 0.984 -0.642 0.4 -2.49 -0.872 -2.032 -3.6 1.292 -79.858 39 -87 43.122 -0.52 0.344 -0.172 1.45 0.526 1.162Z" fill="#303e4d" stroke-width="1"></path><path d="M148.348 382.964c18.032 -6.68 132.716 -56.09 137.78 -58.8a1.118 1.118 0 0 0 -0.87 -2.03c-4.354 1.45 -127.338 54.96 -137.374 59.662 -0.636 0.306 -0.174 1.404 0.464 1.168Z" fill="#303e4d" stroke-width="1"></path><path d="M65.586 370.486c5.948 -2.07 69.526 -30.822 72.548 -32.674a1.118 1.118 0 0 0 -0.872 -2.032c-5.98 1.91 -66.336 30.238 -72.2 33.6 -0.578 0.294 -0.168 1.348 0.524 1.106Z" fill="#303e4d" stroke-width="1"></path><path d="M93.734 90.632c-0.58 -6.5 -9.924 -11.782 -15.554 -12.536 -8.646 -1.16 -18.2 4.032 -20.95 12.6a0.96 0.96 0 0 0 1.74 0.754c3.488 -6.35 9.054 -11.4 16.658 -11.318a18.51 18.51 0 0 1 10.04 3.134c3.322 2.244 7.424 6.87 4.932 11.086a1.106 1.106 0 0 0 1.916 1.102 11.032 11.032 0 0 1 12.6 -4.526c4 1.096 10.684 5 11.6 9.518 0.874 4.294 -4.18 4.352 -6.966 4.584S63.32 108.496 52.586 107.52a18.754 18.754 0 0 1 -7.718 -1.74c-3.706 -2.222 -0.752 -6.2 2.03 -7.6a11.35 11.35 0 0 1 12.536 2.02 0.782 0.782 0 0 0 1.104 -1.104c-4.718 -5.49 -16.956 -5.8 -19.384 2.38 -3.03 10.212 18.454 8.472 23.388 8.358 12.826 -0.296 44.518 -2.472 47.6 -2.844a9.434 9.434 0 0 0 5.166 -1.742c7.912 -6.872 -12.888 -22.916 -23.574 -14.616Z" fill="#303e4d" stroke-width="1"></path><path d="M373.358 296.722a19.112 19.112 0 0 0 -18.282 3.772 17.542 17.542 0 0 0 -33.314 0.522c-5.164 -1.276 -11.034 -2.16 -15.67 0.986 -3.662 2.486 -6.106 7.262 -3.888 11.434 0.866 1.628 3.2 0.46 2.844 -1.218a7.096 7.096 0 0 1 4.526 -8.126c4.072 -1.664 8.828 -0.366 12.886 0.696a1.78 1.78 0 0 0 2.146 -1.218 14.2 14.2 0 0 1 27.974 0.58 1.732 1.732 0 0 0 2.844 0.754c12.466 -14.684 35 1.778 16.134 7.894 -17.8 5.774 -39.8 3.244 -48.054 2.146 -0.928 -0.122 -1.4 1.26 -0.4 1.452a123.74 123.74 0 0 0 46.896 -0.174 18.446 18.446 0 0 0 9.054 -4.178c5.988 -5.61 0.746 -13.144 -5.696 -15.322Z" fill="#303e4d" stroke-width="1"></path><path d="M302.9 39.674c-0.348 -0.928 -1.4 -0.924 -2.2 -0.812a3.062 3.062 0 0 0 -2.032 1.4c-0.734 1.058 0.928 2.378 1.8 1.4 0.286 -0.304 2.316 -0.826 2.432 -1.988Z" fill="#303e4d" stroke-width="1"></path><path d="M303.364 41.532c-0.988 -0.4 -4.816 1.684 -4.758 2.786a0.948 0.948 0 0 0 1.16 0.928 20.706 20.706 0 0 0 3.772 -2.38 0.768 0.768 0 0 0 -0.174 -1.334Z" fill="#303e4d" stroke-width="1"></path><path d="M304.468 44.666c-1.046 -0.696 -5.718 2.032 -5.8 3.308a0.892 0.892 0 0 0 1.16 0.87 16.902 16.902 0 0 0 4.934 -3.134c0.238 -0.29 -0.004 -0.812 -0.294 -1.044Z" fill="#303e4d" stroke-width="1"></path><path d="M288.914 52.734c4.976 1.6 13.672 1.758 16.482 -3.774 0.528 -1.04 -1 -2.332 -1.682 -1.276 -3.332 5.172 -11.722 3.772 -14.684 3.83a0.624 0.624 0 0 0 -0.116 1.22Z" fill="#303e4d" stroke-width="1"></path><path d="M287.868 45.014c0.93 0.058 4.348 -2.682 5.456 -3.134 1.618 -0.658 0.972 0.644 1.336 1.684 0.528 1.52 2.2 1.52 2.2 0.58 0 -2.032 -0.234 -5.754 -3.076 -4.876 -4.454 1.38 -7.292 5.288 -5.916 5.746Z" fill="#303e4d" stroke-width="1"></path><path d="M225.654 32.246a36.424 36.424 0 0 0 1.16 4.702c0.288 1.102 -0.23 1 -1.102 1.102a1.504 1.504 0 0 0 -1.162 0.696 0.68 0.68 0 0 0 0.348 0.928c1.336 0.4 3.486 0.292 3.6 -1.45a26.26 26.26 0 0 0 -2.088 -6.152c-0.18 -0.346 -0.81 -0.234 -0.756 0.174Z" fill="#303e4d" stroke-width="1"></path><path d="M228.322 42.4a5.366 5.366 0 0 1 -6.5 0.638c-0.232 -0.174 -0.58 -0.232 -0.696 0.118 -1.044 2.378 -0.58 5.8 2.728 5.4a10.678 10.678 0 0 0 5.978 -5.164c0.186 -0.522 -0.186 -2.164 -1.51 -0.992Zm-5.222 4.76c-1.456 -0.2 -1.4 -1.626 -1.22 -2.786a5.872 5.872 0 0 0 4.528 1.16 4.682 4.682 0 0 1 -3.308 1.628Z" fill="#303e4d" stroke-width="1"></path><path d="M117.878 275.2a9.962 9.962 0 0 0 -6.036 -3.89 16.544 16.544 0 0 0 -7.95 1.8c-9.86 4.062 -13.546 12.862 -28.904 31.978 -5.556 6.918 -21.8 18.31 -24.142 20.6 -0.588 0.572 0.222 1.672 0.87 1.16 12.456 -9.848 28.284 -8.624 56.644 -14.34 5.222 -1.054 12.304 -2.2 15.96 -6.616 3.366 -4.064 3.148 -18.874 -6.442 -30.692Zm2.902 30.236c-4.714 3.4 -30.354 7.488 -36.97 8.532a116.956 116.956 0 0 0 -20.2 4.296c20.822 -16.464 23.2 -26.72 32.268 -36.4a27.122 27.122 0 0 1 6.848 -5.514c2.906 -1.56 7.654 -3.586 10.68 -1.74 2.2 1.342 7.83 11.898 8.878 15.262 1.516 4.82 3.416 11.998 -1.504 15.554Z" fill="#303e4d" stroke-width="1"></path><path d="M280.846 47.626c-3.6 0.706 -46.662 13.116 -46.72 13.116 -0.87 -1.16 -1.8 -2.322 -2.67 -3.54a0.83 0.83 0 0 0 -0.986 -0.464 9.37 9.37 0 0 0 -0.638 -2.844 0.658 0.658 0 0 0 -1.278 0.174 15.75 15.75 0 0 0 0.756 4.41c-0.698 1.568 -2.67 4.528 -2.67 4.586a98.734 98.734 0 0 1 -9.8 -7.254 19.4 19.4 0 0 0 -2.496 -12.6c-0.058 -0.118 -0.522 -0.4 -0.638 -0.35 -2.222 0.278 -3.132 -2.268 -2.438 -4.352a4 4 0 0 1 4.7 -3.018 42.434 42.434 0 0 0 7.778 -14.684 7.966 7.966 0 0 0 3.6 5q0.6 1.4 1.218 2.96a4.332 4.332 0 0 0 -2.958 -0.232 0.342 0.342 0 0 0 0 0.638c1.16 0.348 2.32 0.58 3.424 0.986 2.784 7.836 3.83 17 -4.76 21.416a0.286 0.286 0 0 0 0.232 0.522c10.842 -3.362 9.054 -18.514 4.412 -26.348 1.296 -5.094 -2.4 -9.776 -7.894 -7.72 -4.124 -2.944 -8.818 1 -12.014 4.934a21.758 21.758 0 0 0 -4.526 13.638c3.772 2.38 8.066 10.97 8.588 12.828a1.43 1.43 0 0 0 0.698 0.58 0.782 0.782 0 0 0 0.928 -0.64 22.144 22.144 0 0 1 0.638 6.268c-0.058 0.06 -2.438 4 -3.6 5.92 -4.468 -0.928 -8.822 2.844 -8.822 4.644a0.626 0.626 0 0 0 0.812 0.58c0.524 -0.116 4.876 -4 8.358 -2.844 7.8 5.6 7.912 8.6 9.17 7.836 0.116 -0.058 1.8 -2.554 2.496 -3.716a3.696 3.696 0 0 0 7.254 -0.87c0.116 0.116 0.29 0.232 0.4 0.348a0.816 0.816 0 0 0 1.336 -0.348 48.882 48.882 0 0 1 2.554 -4.468c3.714 -0.4 42.714 -12.188 46.022 -14.046 0.638 -0.234 0.172 -1.17 -0.466 -1.046Zm-59.952 22.112a47.382 47.382 0 0 0 -7.776 -7.08s2.03 -3.424 3.076 -5.166a39.088 39.088 0 0 0 8.53 6.21c-1.276 2.032 -2.554 4.004 -3.83 6.036Zm10.852 -4.062a26.422 26.422 0 0 0 -3.2 -2.554 27.2 27.2 0 0 0 2.264 -4c0.928 1.16 1.8 2.378 2.728 3.54a18.072 18.072 0 0 0 -1.792 3.014Z" fill="#303e4d" stroke-width="1"></path><path d="M388.622 81c-4.384 -6.62 -17.46 -9.982 -27.626 -4.412 -0.464 -2.264 -2.904 -4.176 -4.934 -5.456 -15.054 -9.484 -31 -6.44 -38.536 3.484 -0.926 1.22 1.164 2.438 2.09 1.218a20.846 20.846 0 0 1 18.572 -8c11.2 1.298 22.434 7.218 20.022 10.8 -0.63 0.934 0.686 2.366 1.624 1.624a20.872 20.872 0 0 1 23.042 -1.4c7.308 4.336 5.316 9.282 -1.046 10.736 -25.872 5.916 -68.124 4.884 -78.756 2.786a8.852 8.852 0 0 1 -4.294 -1.682c-1.906 -1.694 -1 -3.73 0.812 -4.818a29.934 29.934 0 0 1 7.72 -2.728c5.342 -1.38 12.234 -1.306 15.496 3.89a0.678 0.678 0 0 0 1.16 -0.698c-2.148 -4.352 -7.138 -5.92 -11.724 -5.862 -4.468 0.058 -13.934 3.304 -15.554 5.166 -3.376 3.88 1.4 7.71 5 8.474 19.742 4.188 49.964 1.858 64.362 0.464 5.62 -0.552 29.974 -2.41 22.57 -13.586Z" fill="#303e4d" stroke-width="1"></path></svg>